{
	"asset":{
		"generator":"Khronos glTF Blender I/O v5.1.20",
		"version":"2.0"
	},
	"extensionsUsed":[
		"KHR_materials_emissive_strength"
	],
	"scene":0,
	"scenes":[
		{
			"name":"Scene",
			"nodes":[
				0
			]
		}
	],
	"nodes":[
		{
			"mesh":0,
			"name":"Sphere",
			"scale":[
				1.2000000476837158,
				1,
				1.2000000476837158
			]
		}
	],
	"materials":[
		{
			"alphaMode":"BLEND",
			"doubleSided":true,
			"emissiveFactor":[
				1,
				0.6418247222900391,
				0
			],
			"extensions":{
				"KHR_materials_emissive_strength":{
					"emissiveStrength":5
				}
			},
			"name":"Material.001",
			"pbrMetallicRoughness":{
				"baseColorFactor":[
					0.8003387451171875,
					0.6523439884185791,
					0,
					0.20000000298023224
				],
				"metallicFactor":0,
				"roughnessFactor":0.5
			}
		}
	],
	"meshes":[
		{
			"name":"Sphere.003",
			"primitives":[
				{
					"attributes":{
						"POSITION":0,
						"NORMAL":1,
						"TEXCOORD_0":2
					},
					"indices":3,
					"material":0
				}
			]
		}
	],
	"accessors":[
		{
			"bufferView":0,
			"componentType":5126,
			"count":1344,
			"max":[
				0.8314694166183472,
				1,
				0.8314692974090576
			],
			"min":[
				-0.8314691781997681,
				-1,
				-0.8314695954322815
			],
			"type":"VEC3"
		},
		{
			"bufferView":1,
			"componentType":5126,
			"count":1344,
			"type":"VEC3"
		},
		{
			"bufferView":2,
			"componentType":5126,
			"count":1344,
			"type":"VEC2"
		},
		{
			"bufferView":3,
			"componentType":5123,
			"count":1920,
			"type":"SCALAR"
		}
	],
	"bufferViews":[
		{
			"buffer":0,
			"byteLength":16128,
			"byteOffset":0,
			"target":34962
		},
		{
			"buffer":0,
			"byteLength":16128,
			"byteOffset":16128,
			"target":34962
		},
		{
			"buffer":0,
			"byteLength":10752,
			"byteOffset":32256,
			"target":34962
		},
		{
			"buffer":0,
			"byteLength":3840,
			"byteOffset":43008,
			"target":34963
		}
	],
	"buffers":[
		{
			"byteLength":46848,
			"uri":"crude_capsule.bin"
		}
	]
}
