{
	"asset":{
		"generator":"Khronos glTF Blender I/O v5.1.20",
		"version":"2.0"
	},
	"scene":0,
	"scenes":[
		{
			"name":"Scene",
			"nodes":[
				0
			]
		}
	],
	"nodes":[
		{
			"mesh":0,
			"name":"Cube"
		}
	],
	"materials":[
		{
			"doubleSided":true,
			"name":"Material.006",
			"pbrMetallicRoughness":{
				"baseColorTexture":{
					"index":0
				},
				"metallicFactor":0,
				"roughnessFactor":0.5
			}
		}
	],
	"meshes":[
		{
			"name":"Cube.006",
			"primitives":[
				{
					"attributes":{
						"POSITION":0,
						"NORMAL":1,
						"TEXCOORD_0":2,
						"TEXCOORD_1":3,
						"TEXCOORD_2":4
					},
					"indices":5,
					"material":0
				}
			]
		}
	],
	"textures":[
		{
			"sampler":0,
			"source":0
		}
	],
	"images":[
		{
			"mimeType":"image/png",
			"name":"white_grid",
			"uri":"white_grid.png"
		}
	],
	"accessors":[
		{
			"bufferView":0,
			"componentType":5126,
			"count":97,
			"max":[
				14.368383407592773,
				5,
				16.84420394897461
			],
			"min":[
				-8.476522445678711,
				-1,
				-13.664773941040039
			],
			"type":"VEC3"
		},
		{
			"bufferView":1,
			"componentType":5126,
			"count":97,
			"type":"VEC3"
		},
		{
			"bufferView":2,
			"componentType":5126,
			"count":97,
			"type":"VEC2"
		},
		{
			"bufferView":3,
			"componentType":5126,
			"count":97,
			"type":"VEC2"
		},
		{
			"bufferView":4,
			"componentType":5126,
			"count":97,
			"type":"VEC2"
		},
		{
			"bufferView":5,
			"componentType":5123,
			"count":186,
			"type":"SCALAR"
		}
	],
	"bufferViews":[
		{
			"buffer":0,
			"byteLength":1164,
			"byteOffset":0,
			"target":34962
		},
		{
			"buffer":0,
			"byteLength":1164,
			"byteOffset":1164,
			"target":34962
		},
		{
			"buffer":0,
			"byteLength":776,
			"byteOffset":2328,
			"target":34962
		},
		{
			"buffer":0,
			"byteLength":776,
			"byteOffset":3104,
			"target":34962
		},
		{
			"buffer":0,
			"byteLength":776,
			"byteOffset":3880,
			"target":34962
		},
		{
			"buffer":0,
			"byteLength":372,
			"byteOffset":4656,
			"target":34963
		}
	],
	"samplers":[
		{
			"magFilter":9729,
			"minFilter":9987
		}
	],
	"buffers":[
		{
			"byteLength":5028,
			"uri":"blackout.bin"
		}
	]
}
